<?xml version="1.0" encoding="us-ascii" standalone="no"?><svg xmlns="http://www.w3.org/2000/svg" xmlns:xlink="http://www.w3.org/1999/xlink" contentStyleType="text/css" height="816px" preserveAspectRatio="none" style="width:1752px;height:816px;background:#FFFFFF;" version="1.1" viewBox="0 0 1752 816" width="1752px" zoomAndPan="magnify"><defs/><g><!--cluster domain--><g id="cluster_domain"><path d="M8.5,365.5 L69.5,365.5 A3.75,3.75 0 0 1 72,368 L79,387.7969 L1270.5,387.7969 A2.5,2.5 0 0 1 1273,390.2969 L1273,806.5 A2.5,2.5 0 0 1 1270.5,809 L8.5,809 A2.5,2.5 0 0 1 6,806.5 L6,368 A2.5,2.5 0 0 1 8.5,365.5 " fill="none" style="stroke:#000000;stroke-width:1.5;"/><line style="stroke:#000000;stroke-width:1.5;" x1="6" x2="79" y1="387.7969" y2="387.7969"/><text fill="#000000" font-family="sans-serif" font-size="14" font-weight="bold" lengthAdjust="spacing" textLength="60" x="10" y="380.4951">domain</text></g><!--cluster infrastructure--><g id="cluster_infrastructure"><path d="M1299.5,341 L1416.5,341 A3.75,3.75 0 0 1 1419,343.5 L1426,363.2969 L1742.5,363.2969 A2.5,2.5 0 0 1 1745,365.7969 L1745,600.5 A2.5,2.5 0 0 1 1742.5,603 L1299.5,603 A2.5,2.5 0 0 1 1297,600.5 L1297,343.5 A2.5,2.5 0 0 1 1299.5,341 " fill="none" style="stroke:#000000;stroke-width:1.5;"/><line style="stroke:#000000;stroke-width:1.5;" x1="1297" x2="1426" y1="363.2969" y2="363.2969"/><text fill="#000000" font-family="sans-serif" font-size="14" font-weight="bold" lengthAdjust="spacing" textLength="116" x="1301" y="355.9951">infrastructure</text></g><!--cluster usecases--><g id="cluster_usecases"><path d="M922.5,6 L997.5,6 A3.75,3.75 0 0 1 1000,8.5 L1007,28.2969 L1524.5,28.2969 A2.5,2.5 0 0 1 1527,30.7969 L1527,314.5 A2.5,2.5 0 0 1 1524.5,317 L922.5,317 A2.5,2.5 0 0 1 920,314.5 L920,8.5 A2.5,2.5 0 0 1 922.5,6 " fill="none" style="stroke:#000000;stroke-width:1.5;"/><line style="stroke:#000000;stroke-width:1.5;" x1="920" x2="1007" y1="28.2969" y2="28.2969"/><text fill="#000000" font-family="sans-serif" font-size="14" font-weight="bold" lengthAdjust="spacing" textLength="74" x="924" y="20.9951">usecases</text></g><!--cluster __builtin__--><g id="cluster___builtin__"><path d="M554.5,112 L608.5,112 A3.75,3.75 0 0 1 611,114.5 L618,134.2969 L728.5,134.2969 A2.5,2.5 0 0 1 731,136.7969 L731,208.5 A2.5,2.5 0 0 1 728.5,211 L554.5,211 A2.5,2.5 0 0 1 552,208.5 L552,114.5 A2.5,2.5 0 0 1 554.5,112 " fill="none" style="stroke:#000000;stroke-width:1.5;"/><line style="stroke:#000000;stroke-width:1.5;" x1="552" x2="618" y1="134.2969" y2="134.2969"/><text fill="#000000" font-family="sans-serif" font-size="14" font-weight="bold" lengthAdjust="spacing" text-decoration="underline" textLength="53" x="556" y="126.9951">builtin</text></g><!--class Alien--><g id="elem_Alien"><rect codeLine="35" fill="#F1F1F1" height="64.2969" id="Alien" rx="2.5" ry="2.5" style="stroke:#181818;stroke-width:0.5;" width="126" x="661" y="449.5"/><ellipse cx="702.1" cy="465.5" fill="#FF7700" rx="11" ry="11" style="stroke:#181818;stroke-width:1.0;"/><path d="M702.5375,463.0313 L704.3813,463.0313 L704.3813,464.625 C704.3813,465.0156 704.4125,465.1875 704.5063,465.3281 C704.6625,465.5781 704.9438,465.7344 705.2406,465.7344 C705.5063,465.7344 705.7563,465.6094 705.9281,465.3906 C706.0688,465.2188 706.0844,465.0938 706.0844,464.625 L706.0844,461.3438 L697.3188,461.3438 L697.3188,464.625 C697.3188,465.0156 697.35,465.1875 697.4281,465.3281 C697.5844,465.5938 697.8813,465.7344 698.1625,465.7344 C698.4438,465.7344 698.6938,465.6094 698.8656,465.3906 C698.975,465.2188 699.0063,465.0781 699.0063,464.625 L699.0063,463.0313 L700.8344,463.0313 L700.8344,469.5469 L699.725,469.5469 C699.2875,469.5469 699.1625,469.5625 699.0063,469.6719 C698.7563,469.8281 698.6,470.1094 698.6,470.4063 C698.6,470.6563 698.7406,470.9219 698.9594,471.0781 C699.1156,471.2031 699.3344,471.25 699.725,471.25 L703.6625,471.25 C703.9906,471.25 704.2563,471.2031 704.3656,471.125 C704.6313,470.9844 704.7719,470.6875 704.7719,470.4063 C704.7719,470.125 704.6469,469.875 704.4125,469.7031 C704.2563,469.5781 704.1156,469.5469 703.6625,469.5469 L702.5375,469.5469 L702.5375,463.0313 Z " fill="#000000"/><text fill="#000000" font-family="sans-serif" font-size="14" lengthAdjust="spacing" textLength="36" x="721.9" y="470.3467">Alien</text><line style="stroke:#181818;stroke-width:0.5;" x1="662" x2="786" y1="481.5" y2="481.5"/><line style="stroke:#181818;stroke-width:0.5;" x1="662" x2="786" y1="489.5" y2="489.5"/><ellipse cx="672" cy="503.1484" fill="#84BE84" rx="3" ry="3" style="stroke:#038048;stroke-width:1.0;"/><text fill="#000000" font-family="sans-serif" font-size="14" lengthAdjust="spacing" textLength="100" x="681" y="506.4951">String() string</text></g><!--class City--><g id="elem_City"><rect codeLine="6" fill="#F1F1F1" height="162.0781" id="City" rx="2.5" ry="2.5" style="stroke:#181818;stroke-width:0.5;" width="237" x="822.5" y="400.5"/><ellipse cx="922.25" cy="416.5" fill="#7FFFD4" rx="11" ry="11" style="stroke:#181818;stroke-width:1.0;"/><path d="M926.0313,412.4688 C926.0313,412.0313 926.0156,411.8906 925.9219,411.7344 C925.7813,411.5 925.5,411.3438 925.2031,411.3438 C924.8594,411.3438 924.7188,411.4844 924.5469,411.9063 C923.9531,411.5313 923.2031,411.3438 922.3281,411.3438 C920.2188,411.3438 918.6406,412.6406 918.6406,414.3594 C918.6406,415.3281 919.1719,416.2344 920.0313,416.7188 C920.5781,417.0313 921.125,417.2031 922.2344,417.3906 C923.3906,417.5938 923.6563,417.6563 924.0156,417.8438 C924.3906,418.0469 924.625,418.3906 924.625,418.75 C924.625,419.4844 923.6406,420.0313 922.3906,420.0313 C921.2656,420.0313 920.1875,419.5469 920.0156,418.9375 C919.8906,418.4688 919.8906,418.4688 919.7656,418.3594 C919.6094,418.2031 919.3906,418.1094 919.1563,418.1094 C918.875,418.1094 918.625,418.2344 918.4531,418.4531 C918.3438,418.625 918.2969,418.8125 918.2969,419.2344 L918.2969,420.3594 C918.2969,421.125 918.5781,421.4844 919.1719,421.4844 C919.4375,421.4844 919.5625,421.4219 919.8438,421.0781 C920.6875,421.5156 921.5781,421.7344 922.5,421.7344 C924.8281,421.7344 926.3906,420.5469 926.3906,418.7813 C926.3906,417.8906 926.0781,417.2031 925.3906,416.6563 C924.8594,416.2344 924.2188,415.9844 922.7344,415.7188 C921.4688,415.4844 921.375,415.4531 921.0469,415.2813 C920.6719,415.0938 920.4063,414.7031 920.4063,414.3438 C920.4063,413.6094 921.2656,413.0469 922.3281,413.0469 C923.3906,413.0469 924.2031,413.5156 924.3594,414.1875 C924.4688,414.7344 924.4688,414.7344 924.5938,414.875 C924.7344,415 924.9688,415.1094 925.2031,415.1094 C925.4688,415.1094 925.7188,414.9688 925.8906,414.75 C926,414.5781 926.0313,414.4375 926.0313,413.9688 L926.0313,412.4688 Z " fill="#000000"/><text fill="#000000" font-family="sans-serif" font-size="14" lengthAdjust="spacing" textLength="29" x="942.75" y="421.3467">City</text><line style="stroke:#181818;stroke-width:0.5;" x1="823.5" x2="1058.5" y1="432.5" y2="432.5"/><rect fill="none" height="6" style="stroke:#C82930;stroke-width:1.0;" width="6" x="830.5" y="443.1484"/><text fill="#000000" font-family="sans-serif" font-size="14" lengthAdjust="spacing" textLength="130" x="842.5" y="449.4951">inInroads RoadSet</text><text fill="#000000" font-family="sans-serif" font-size="14" lengthAdjust="spacing" textLength="4" x="842.5" y="465.792">&#160;</text><ellipse cx="833.5" cy="478.7422" fill="none" rx="3" ry="3" style="stroke:#038048;stroke-width:1.0;"/><text fill="#000000" font-family="sans-serif" font-size="14" lengthAdjust="spacing" textLength="87" x="842.5" y="482.0889">Name string</text><ellipse cx="833.5" cy="495.0391" fill="none" rx="3" ry="3" style="stroke:#038048;stroke-width:1.0;"/><text fill="#000000" font-family="sans-serif" font-size="14" lengthAdjust="spacing" textLength="62" x="842.5" y="498.3857">OutRoad</text><text fill="#0000FF" font-family="sans-serif" font-size="14" lengthAdjust="spacing" textLength="32" x="908.5" y="498.3857">map</text><text fill="#000000" font-family="sans-serif" font-size="14" lengthAdjust="spacing" textLength="113" x="940.5" y="498.3857">[Direction]*City</text><ellipse cx="833.5" cy="511.3359" fill="none" rx="3" ry="3" style="stroke:#038048;stroke-width:1.0;"/><text fill="#000000" font-family="sans-serif" font-size="14" lengthAdjust="spacing" textLength="93" x="842.5" y="514.6826">Aliens []Alien</text><line style="stroke:#181818;stroke-width:0.5;" x1="823.5" x2="1058.5" y1="521.9844" y2="521.9844"/><ellipse cx="833.5" cy="535.6328" fill="#84BE84" rx="3" ry="3" style="stroke:#038048;stroke-width:1.0;"/><text fill="#000000" font-family="sans-serif" font-size="14" lengthAdjust="spacing" textLength="100" x="842.5" y="538.9795">String() string</text><ellipse cx="833.5" cy="551.9297" fill="#84BE84" rx="3" ry="3" style="stroke:#038048;stroke-width:1.0;"/><text fill="#000000" font-family="sans-serif" font-size="14" lengthAdjust="spacing" textLength="165" x="842.5" y="555.2764">Directions() []Direction</text></g><!--class Direction--><g id="elem_Direction"><rect codeLine="37" fill="#F1F1F1" height="64.2969" id="Direction" rx="2.5" ry="2.5" style="stroke:#181818;stroke-width:0.5;" width="126" x="500" y="449.5"/><ellipse cx="527.15" cy="465.5" fill="#FF7700" rx="11" ry="11" style="stroke:#181818;stroke-width:1.0;"/><path d="M527.5875,463.0313 L529.4313,463.0313 L529.4313,464.625 C529.4313,465.0156 529.4625,465.1875 529.5563,465.3281 C529.7125,465.5781 529.9938,465.7344 530.2906,465.7344 C530.5563,465.7344 530.8063,465.6094 530.9781,465.3906 C531.1188,465.2188 531.1344,465.0938 531.1344,464.625 L531.1344,461.3438 L522.3688,461.3438 L522.3688,464.625 C522.3688,465.0156 522.4,465.1875 522.4781,465.3281 C522.6344,465.5938 522.9313,465.7344 523.2125,465.7344 C523.4938,465.7344 523.7438,465.6094 523.9156,465.3906 C524.025,465.2188 524.0563,465.0781 524.0563,464.625 L524.0563,463.0313 L525.8844,463.0313 L525.8844,469.5469 L524.775,469.5469 C524.3375,469.5469 524.2125,469.5625 524.0563,469.6719 C523.8063,469.8281 523.65,470.1094 523.65,470.4063 C523.65,470.6563 523.7906,470.9219 524.0094,471.0781 C524.1656,471.2031 524.3844,471.25 524.775,471.25 L528.7125,471.25 C529.0406,471.25 529.3063,471.2031 529.4156,471.125 C529.6813,470.9844 529.8219,470.6875 529.8219,470.4063 C529.8219,470.125 529.6969,469.875 529.4625,469.7031 C529.3063,469.5781 529.1656,469.5469 528.7125,469.5469 L527.5875,469.5469 L527.5875,463.0313 Z " fill="#000000"/><text fill="#000000" font-family="sans-serif" font-size="14" lengthAdjust="spacing" textLength="67" x="543.85" y="470.3467">Direction</text><line style="stroke:#181818;stroke-width:0.5;" x1="501" x2="625" y1="481.5" y2="481.5"/><line style="stroke:#181818;stroke-width:0.5;" x1="501" x2="625" y1="489.5" y2="489.5"/><ellipse cx="511" cy="503.1484" fill="#84BE84" rx="3" ry="3" style="stroke:#038048;stroke-width:1.0;"/><text fill="#000000" font-family="sans-serif" font-size="14" lengthAdjust="spacing" textLength="100" x="520" y="506.4951">String() string</text></g><!--class Map--><g id="elem_Map"><rect codeLine="39" fill="#F1F1F1" height="145.7813" id="Map" rx="2.5" ry="2.5" style="stroke:#181818;stroke-width:0.5;" width="458" x="22" y="647"/><ellipse cx="231.75" cy="663" fill="#FF7700" rx="11" ry="11" style="stroke:#181818;stroke-width:1.0;"/><path d="M232.1875,660.5313 L234.0313,660.5313 L234.0313,662.125 C234.0313,662.5156 234.0625,662.6875 234.1563,662.8281 C234.3125,663.0781 234.5938,663.2344 234.8906,663.2344 C235.1563,663.2344 235.4063,663.1094 235.5781,662.8906 C235.7188,662.7188 235.7344,662.5938 235.7344,662.125 L235.7344,658.8438 L226.9688,658.8438 L226.9688,662.125 C226.9688,662.5156 227,662.6875 227.0781,662.8281 C227.2344,663.0938 227.5313,663.2344 227.8125,663.2344 C228.0938,663.2344 228.3438,663.1094 228.5156,662.8906 C228.625,662.7188 228.6563,662.5781 228.6563,662.125 L228.6563,660.5313 L230.4844,660.5313 L230.4844,667.0469 L229.375,667.0469 C228.9375,667.0469 228.8125,667.0625 228.6563,667.1719 C228.4063,667.3281 228.25,667.6094 228.25,667.9063 C228.25,668.1563 228.3906,668.4219 228.6094,668.5781 C228.7656,668.7031 228.9844,668.75 229.375,668.75 L233.3125,668.75 C233.6406,668.75 233.9063,668.7031 234.0156,668.625 C234.2813,668.4844 234.4219,668.1875 234.4219,667.9063 C234.4219,667.625 234.2969,667.375 234.0625,667.2031 C233.9063,667.0781 233.7656,667.0469 233.3125,667.0469 L232.1875,667.0469 L232.1875,660.5313 Z " fill="#000000"/><text fill="#000000" font-family="sans-serif" font-size="14" lengthAdjust="spacing" textLength="30" x="252.25" y="667.8467">Map</text><line style="stroke:#181818;stroke-width:0.5;" x1="23" x2="479" y1="679" y2="679"/><line style="stroke:#181818;stroke-width:0.5;" x1="23" x2="479" y1="687" y2="687"/><rect fill="#F24D5C" height="6" style="stroke:#C82930;stroke-width:1.0;" width="6" x="30" y="697.6484"/><text fill="#000000" font-family="sans-serif" font-size="14" lengthAdjust="spacing" textLength="432" x="42" y="703.9951">validateLink(from string, to string, direction Direction) error</text><text fill="#000000" font-family="sans-serif" font-size="14" lengthAdjust="spacing" textLength="4" x="42" y="720.292">&#160;</text><ellipse cx="33" cy="733.2422" fill="#84BE84" rx="3" ry="3" style="stroke:#038048;stroke-width:1.0;"/><text fill="#000000" font-family="sans-serif" font-size="14" lengthAdjust="spacing" textLength="127" x="42" y="736.5889">ListCities() []*City</text><ellipse cx="33" cy="749.5391" fill="#84BE84" rx="3" ry="3" style="stroke:#038048;stroke-width:1.0;"/><text fill="#000000" font-family="sans-serif" font-size="14" lengthAdjust="spacing" textLength="416" x="42" y="752.8857">LinkCities(from string, to string, direction Direction) error</text><ellipse cx="33" cy="765.8359" fill="#84BE84" rx="3" ry="3" style="stroke:#038048;stroke-width:1.0;"/><text fill="#000000" font-family="sans-serif" font-size="14" lengthAdjust="spacing" textLength="163" x="42" y="769.1826">DestroyCity(city *City)</text><ellipse cx="33" cy="782.1328" fill="#84BE84" rx="3" ry="3" style="stroke:#038048;stroke-width:1.0;"/><text fill="#000000" font-family="sans-serif" font-size="14" lengthAdjust="spacing" textLength="189" x="42" y="785.4795">InitCity(name string) *City</text></g><!--class RoadSet--><g id="elem_RoadSet"><rect codeLine="41" fill="#F1F1F1" height="80.5938" id="RoadSet" rx="2.5" ry="2.5" style="stroke:#181818;stroke-width:0.5;" width="133" x="515.5" y="679.5"/><ellipse cx="548.5" cy="695.5" fill="#FF7700" rx="11" ry="11" style="stroke:#181818;stroke-width:1.0;"/><path d="M548.9375,693.0313 L550.7813,693.0313 L550.7813,694.625 C550.7813,695.0156 550.8125,695.1875 550.9063,695.3281 C551.0625,695.5781 551.3438,695.7344 551.6406,695.7344 C551.9063,695.7344 552.1563,695.6094 552.3281,695.3906 C552.4688,695.2188 552.4844,695.0938 552.4844,694.625 L552.4844,691.3438 L543.7188,691.3438 L543.7188,694.625 C543.7188,695.0156 543.75,695.1875 543.8281,695.3281 C543.9844,695.5938 544.2813,695.7344 544.5625,695.7344 C544.8438,695.7344 545.0938,695.6094 545.2656,695.3906 C545.375,695.2188 545.4063,695.0781 545.4063,694.625 L545.4063,693.0313 L547.2344,693.0313 L547.2344,699.5469 L546.125,699.5469 C545.6875,699.5469 545.5625,699.5625 545.4063,699.6719 C545.1563,699.8281 545,700.1094 545,700.4063 C545,700.6563 545.1406,700.9219 545.3594,701.0781 C545.5156,701.2031 545.7344,701.25 546.125,701.25 L550.0625,701.25 C550.3906,701.25 550.6563,701.2031 550.7656,701.125 C551.0313,700.9844 551.1719,700.6875 551.1719,700.4063 C551.1719,700.125 551.0469,699.875 550.8125,699.7031 C550.6563,699.5781 550.5156,699.5469 550.0625,699.5469 L548.9375,699.5469 L548.9375,693.0313 Z " fill="#000000"/><text fill="#000000" font-family="sans-serif" font-size="14" lengthAdjust="spacing" textLength="61" x="566.5" y="700.3467">RoadSet</text><line style="stroke:#181818;stroke-width:0.5;" x1="516.5" x2="647.5" y1="711.5" y2="711.5"/><line style="stroke:#181818;stroke-width:0.5;" x1="516.5" x2="647.5" y1="719.5" y2="719.5"/><rect fill="#F24D5C" height="6" style="stroke:#C82930;stroke-width:1.0;" width="6" x="523.5" y="730.1484"/><text fill="#000000" font-family="sans-serif" font-size="14" lengthAdjust="spacing" textLength="78" x="535.5" y="736.4951">add(r road)</text><rect fill="#F24D5C" height="6" style="stroke:#C82930;stroke-width:1.0;" width="6" x="523.5" y="746.4453"/><text fill="#000000" font-family="sans-serif" font-size="14" lengthAdjust="spacing" textLength="107" x="535.5" y="752.792">remove(r road)</text></g><!--class road--><g id="elem_road"><rect codeLine="43" fill="#F1F1F1" height="80.5938" id="road" rx="2.5" ry="2.5" style="stroke:#181818;stroke-width:0.5;" width="162" x="1095" y="441"/><ellipse cx="1155.75" cy="457" fill="#7FFFD4" rx="11" ry="11" style="stroke:#181818;stroke-width:1.0;"/><path d="M1159.5313,452.9688 C1159.5313,452.5313 1159.5156,452.3906 1159.4219,452.2344 C1159.2813,452 1159,451.8438 1158.7031,451.8438 C1158.3594,451.8438 1158.2188,451.9844 1158.0469,452.4063 C1157.4531,452.0313 1156.7031,451.8438 1155.8281,451.8438 C1153.7188,451.8438 1152.1406,453.1406 1152.1406,454.8594 C1152.1406,455.8281 1152.6719,456.7344 1153.5313,457.2188 C1154.0781,457.5313 1154.625,457.7031 1155.7344,457.8906 C1156.8906,458.0938 1157.1563,458.1563 1157.5156,458.3438 C1157.8906,458.5469 1158.125,458.8906 1158.125,459.25 C1158.125,459.9844 1157.1406,460.5313 1155.8906,460.5313 C1154.7656,460.5313 1153.6875,460.0469 1153.5156,459.4375 C1153.3906,458.9688 1153.3906,458.9688 1153.2656,458.8594 C1153.1094,458.7031 1152.8906,458.6094 1152.6563,458.6094 C1152.375,458.6094 1152.125,458.7344 1151.9531,458.9531 C1151.8438,459.125 1151.7969,459.3125 1151.7969,459.7344 L1151.7969,460.8594 C1151.7969,461.625 1152.0781,461.9844 1152.6719,461.9844 C1152.9375,461.9844 1153.0625,461.9219 1153.3438,461.5781 C1154.1875,462.0156 1155.0781,462.2344 1156,462.2344 C1158.3281,462.2344 1159.8906,461.0469 1159.8906,459.2813 C1159.8906,458.3906 1159.5781,457.7031 1158.8906,457.1563 C1158.3594,456.7344 1157.7188,456.4844 1156.2344,456.2188 C1154.9688,455.9844 1154.875,455.9531 1154.5469,455.7813 C1154.1719,455.5938 1153.9063,455.2031 1153.9063,454.8438 C1153.9063,454.1094 1154.7656,453.5469 1155.8281,453.5469 C1156.8906,453.5469 1157.7031,454.0156 1157.8594,454.6875 C1157.9688,455.2344 1157.9688,455.2344 1158.0938,455.375 C1158.2344,455.5 1158.4688,455.6094 1158.7031,455.6094 C1158.9688,455.6094 1159.2188,455.4688 1159.3906,455.25 C1159.5,455.0781 1159.5313,454.9375 1159.5313,454.4688 L1159.5313,452.9688 Z " fill="#000000"/><text fill="#000000" font-family="sans-serif" font-size="14" lengthAdjust="spacing" textLength="32" x="1176.25" y="461.8467">road</text><line style="stroke:#181818;stroke-width:0.5;" x1="1096" x2="1256" y1="473" y2="473"/><rect fill="none" height="6" style="stroke:#C82930;stroke-width:1.0;" width="6" x="1103" y="483.6484"/><text fill="#000000" font-family="sans-serif" font-size="14" lengthAdjust="spacing" textLength="75" x="1115" y="489.9951">from *City</text><rect fill="none" height="6" style="stroke:#C82930;stroke-width:1.0;" width="6" x="1103" y="499.9453"/><text fill="#000000" font-family="sans-serif" font-size="14" lengthAdjust="spacing" textLength="136" x="1115" y="506.292">direction Direction</text><line style="stroke:#181818;stroke-width:0.5;" x1="1096" x2="1256" y1="513.5938" y2="513.5938"/></g><!--class void--><g id="elem_void"><rect codeLine="48" fill="#F1F1F1" height="48" id="void" rx="2.5" ry="2.5" style="stroke:#181818;stroke-width:0.5;" width="62" x="910" y="696"/><ellipse cx="925" cy="712" fill="#7FFFD4" rx="11" ry="11" style="stroke:#181818;stroke-width:1.0;"/><path d="M928.7813,707.9688 C928.7813,707.5313 928.7656,707.3906 928.6719,707.2344 C928.5313,707 928.25,706.8438 927.9531,706.8438 C927.6094,706.8438 927.4688,706.9844 927.2969,707.4063 C926.7031,707.0313 925.9531,706.8438 925.0781,706.8438 C922.9688,706.8438 921.3906,708.1406 921.3906,709.8594 C921.3906,710.8281 921.9219,711.7344 922.7813,712.2188 C923.3281,712.5313 923.875,712.7031 924.9844,712.8906 C926.1406,713.0938 926.4063,713.1563 926.7656,713.3438 C927.1406,713.5469 927.375,713.8906 927.375,714.25 C927.375,714.9844 926.3906,715.5313 925.1406,715.5313 C924.0156,715.5313 922.9375,715.0469 922.7656,714.4375 C922.6406,713.9688 922.6406,713.9688 922.5156,713.8594 C922.3594,713.7031 922.1406,713.6094 921.9063,713.6094 C921.625,713.6094 921.375,713.7344 921.2031,713.9531 C921.0938,714.125 921.0469,714.3125 921.0469,714.7344 L921.0469,715.8594 C921.0469,716.625 921.3281,716.9844 921.9219,716.9844 C922.1875,716.9844 922.3125,716.9219 922.5938,716.5781 C923.4375,717.0156 924.3281,717.2344 925.25,717.2344 C927.5781,717.2344 929.1406,716.0469 929.1406,714.2813 C929.1406,713.3906 928.8281,712.7031 928.1406,712.1563 C927.6094,711.7344 926.9688,711.4844 925.4844,711.2188 C924.2188,710.9844 924.125,710.9531 923.7969,710.7813 C923.4219,710.5938 923.1563,710.2031 923.1563,709.8438 C923.1563,709.1094 924.0156,708.5469 925.0781,708.5469 C926.1406,708.5469 926.9531,709.0156 927.1094,709.6875 C927.2188,710.2344 927.2188,710.2344 927.3438,710.375 C927.4844,710.5 927.7188,710.6094 927.9531,710.6094 C928.2188,710.6094 928.4688,710.4688 928.6406,710.25 C928.75,710.0781 928.7813,709.9375 928.7813,709.4688 L928.7813,707.9688 Z " fill="#000000"/><text fill="#000000" font-family="sans-serif" font-size="14" lengthAdjust="spacing" textLength="30" x="939" y="716.8467">void</text><line style="stroke:#181818;stroke-width:0.5;" x1="911" x2="971" y1="728" y2="728"/><line style="stroke:#181818;stroke-width:0.5;" x1="911" x2="971" y1="736" y2="736"/></g><!--class <font color=blue>map</font>[road]{packageName}void--><g id="elem_&lt;font color=blue&gt;map&lt;/font&gt;[road]{packageName}void"><rect fill="#F1F1F1" height="48" id="&lt;font color=blue&gt;map&lt;/font&gt;[road]{packageName}void" rx="2.5" ry="2.5" style="stroke:#181818;stroke-width:0.5;" width="256" x="209" y="457.5"/><ellipse cx="224" cy="473.5" fill="#ADD1B2" rx="11" ry="11" style="stroke:#181818;stroke-width:1.0;"/><path d="M226.3438,469.1719 C225.4063,468.7344 224.8125,468.5938 223.9375,468.5938 C221.3125,468.5938 219.3125,470.6719 219.3125,473.3906 L219.3125,474.5156 C219.3125,477.0938 221.4219,478.9844 224.3125,478.9844 C225.5313,478.9844 226.6875,478.6875 227.4375,478.1406 C228.0156,477.7344 228.3438,477.2813 228.3438,476.8906 C228.3438,476.4375 227.9531,476.0469 227.4844,476.0469 C227.2656,476.0469 227.0625,476.125 226.875,476.3125 C226.4219,476.7969 226.4219,476.7969 226.2344,476.8906 C225.8125,477.1563 225.125,477.2813 224.3594,477.2813 C222.3125,477.2813 221.0156,476.1875 221.0156,474.4844 L221.0156,473.3906 C221.0156,471.6094 222.2656,470.2969 224,470.2969 C224.5781,470.2969 225.1875,470.4531 225.6563,470.7031 C226.1406,470.9844 226.3125,471.2031 226.4063,471.6094 C226.4688,472.0156 226.5,472.1406 226.6406,472.2656 C226.7813,472.4063 227.0156,472.5156 227.2344,472.5156 C227.5,472.5156 227.7656,472.375 227.9375,472.1563 C228.0469,472 228.0781,471.8125 228.0781,471.3906 L228.0781,469.9688 C228.0781,469.5313 228.0625,469.4063 227.9688,469.25 C227.8125,468.9844 227.5313,468.8438 227.2344,468.8438 C226.9375,468.8438 226.7344,468.9375 226.5156,469.25 L226.3438,469.1719 Z " fill="#000000"/><text fill="#0000FF" font-family="sans-serif" font-size="14" lengthAdjust="spacing" textLength="32" x="238" y="478.3467">map</text><text fill="#000000" font-family="sans-serif" font-size="14" lengthAdjust="spacing" textLength="192" x="270" y="478.3467">[road]{packageName}void</text><line style="stroke:#181818;stroke-width:0.5;" x1="210" x2="464" y1="489.5" y2="489.5"/><line style="stroke:#181818;stroke-width:0.5;" x1="210" x2="464" y1="497.5" y2="497.5"/></g><!--class <font color=blue>map</font>[string]*City--><g id="elem_&lt;font color=blue&gt;map&lt;/font&gt;[string]*City"><rect fill="#F1F1F1" height="48" id="&lt;font color=blue&gt;map&lt;/font&gt;[string]*City" rx="2.5" ry="2.5" style="stroke:#181818;stroke-width:0.5;" width="152" x="22" y="457.5"/><ellipse cx="37" cy="473.5" fill="#ADD1B2" rx="11" ry="11" style="stroke:#181818;stroke-width:1.0;"/><path d="M39.3438,469.1719 C38.4063,468.7344 37.8125,468.5938 36.9375,468.5938 C34.3125,468.5938 32.3125,470.6719 32.3125,473.3906 L32.3125,474.5156 C32.3125,477.0938 34.4219,478.9844 37.3125,478.9844 C38.5313,478.9844 39.6875,478.6875 40.4375,478.1406 C41.0156,477.7344 41.3438,477.2813 41.3438,476.8906 C41.3438,476.4375 40.9531,476.0469 40.4844,476.0469 C40.2656,476.0469 40.0625,476.125 39.875,476.3125 C39.4219,476.7969 39.4219,476.7969 39.2344,476.8906 C38.8125,477.1563 38.125,477.2813 37.3594,477.2813 C35.3125,477.2813 34.0156,476.1875 34.0156,474.4844 L34.0156,473.3906 C34.0156,471.6094 35.2656,470.2969 37,470.2969 C37.5781,470.2969 38.1875,470.4531 38.6563,470.7031 C39.1406,470.9844 39.3125,471.2031 39.4063,471.6094 C39.4688,472.0156 39.5,472.1406 39.6406,472.2656 C39.7813,472.4063 40.0156,472.5156 40.2344,472.5156 C40.5,472.5156 40.7656,472.375 40.9375,472.1563 C41.0469,472 41.0781,471.8125 41.0781,471.3906 L41.0781,469.9688 C41.0781,469.5313 41.0625,469.4063 40.9688,469.25 C40.8125,468.9844 40.5313,468.8438 40.2344,468.8438 C39.9375,468.8438 39.7344,468.9375 39.5156,469.25 L39.3438,469.1719 Z " fill="#000000"/><text fill="#0000FF" font-family="sans-serif" font-size="14" lengthAdjust="spacing" textLength="32" x="51" y="478.3467">map</text><text fill="#000000" font-family="sans-serif" font-size="14" lengthAdjust="spacing" textLength="88" x="83" y="478.3467">[string]*City</text><line style="stroke:#181818;stroke-width:0.5;" x1="23" x2="173" y1="489.5" y2="489.5"/><line style="stroke:#181818;stroke-width:0.5;" x1="23" x2="173" y1="497.5" y2="497.5"/></g><!--class Config--><g id="elem_Config"><rect codeLine="54" fill="#F1F1F1" height="145.7813" id="Config" rx="2.5" ry="2.5" style="stroke:#181818;stroke-width:0.5;" width="183" x="1545.5" y="408.5"/><ellipse cx="1609.25" cy="424.5" fill="#7FFFD4" rx="11" ry="11" style="stroke:#181818;stroke-width:1.0;"/><path d="M1613.0313,420.4688 C1613.0313,420.0313 1613.0156,419.8906 1612.9219,419.7344 C1612.7813,419.5 1612.5,419.3438 1612.2031,419.3438 C1611.8594,419.3438 1611.7188,419.4844 1611.5469,419.9063 C1610.9531,419.5313 1610.2031,419.3438 1609.3281,419.3438 C1607.2188,419.3438 1605.6406,420.6406 1605.6406,422.3594 C1605.6406,423.3281 1606.1719,424.2344 1607.0313,424.7188 C1607.5781,425.0313 1608.125,425.2031 1609.2344,425.3906 C1610.3906,425.5938 1610.6563,425.6563 1611.0156,425.8438 C1611.3906,426.0469 1611.625,426.3906 1611.625,426.75 C1611.625,427.4844 1610.6406,428.0313 1609.3906,428.0313 C1608.2656,428.0313 1607.1875,427.5469 1607.0156,426.9375 C1606.8906,426.4688 1606.8906,426.4688 1606.7656,426.3594 C1606.6094,426.2031 1606.3906,426.1094 1606.1563,426.1094 C1605.875,426.1094 1605.625,426.2344 1605.4531,426.4531 C1605.3438,426.625 1605.2969,426.8125 1605.2969,427.2344 L1605.2969,428.3594 C1605.2969,429.125 1605.5781,429.4844 1606.1719,429.4844 C1606.4375,429.4844 1606.5625,429.4219 1606.8438,429.0781 C1607.6875,429.5156 1608.5781,429.7344 1609.5,429.7344 C1611.8281,429.7344 1613.3906,428.5469 1613.3906,426.7813 C1613.3906,425.8906 1613.0781,425.2031 1612.3906,424.6563 C1611.8594,424.2344 1611.2188,423.9844 1609.7344,423.7188 C1608.4688,423.4844 1608.375,423.4531 1608.0469,423.2813 C1607.6719,423.0938 1607.4063,422.7031 1607.4063,422.3438 C1607.4063,421.6094 1608.2656,421.0469 1609.3281,421.0469 C1610.3906,421.0469 1611.2031,421.5156 1611.3594,422.1875 C1611.4688,422.7344 1611.4688,422.7344 1611.5938,422.875 C1611.7344,423 1611.9688,423.1094 1612.2031,423.1094 C1612.4688,423.1094 1612.7188,422.9688 1612.8906,422.75 C1613,422.5781 1613.0313,422.4375 1613.0313,421.9688 L1613.0313,420.4688 Z " fill="#000000"/><text fill="#000000" font-family="sans-serif" font-size="14" lengthAdjust="spacing" textLength="47" x="1629.75" y="429.3467">Config</text><line style="stroke:#181818;stroke-width:0.5;" x1="1546.5" x2="1727.5" y1="440.5" y2="440.5"/><rect fill="none" height="6" style="stroke:#C82930;stroke-width:1.0;" width="6" x="1553.5" y="451.1484"/><text fill="#000000" font-family="sans-serif" font-size="14" lengthAdjust="spacing" textLength="136" x="1565.5" y="457.4951">mapFilePath string</text><rect fill="none" height="6" style="stroke:#C82930;stroke-width:1.0;" width="6" x="1553.5" y="467.4453"/><text fill="#000000" font-family="sans-serif" font-size="14" lengthAdjust="spacing" textLength="108" x="1565.5" y="473.792">aliensCount int</text><rect fill="none" height="6" style="stroke:#C82930;stroke-width:1.0;" width="6" x="1553.5" y="483.7422"/><text fill="#000000" font-family="sans-serif" font-size="14" lengthAdjust="spacing" textLength="128" x="1565.5" y="490.0889">outFilePath string</text><text fill="#000000" font-family="sans-serif" font-size="14" lengthAdjust="spacing" textLength="4" x="1565.5" y="506.3857">&#160;</text><ellipse cx="1556.5" cy="519.3359" fill="none" rx="3" ry="3" style="stroke:#038048;stroke-width:1.0;"/><text fill="#000000" font-family="sans-serif" font-size="14" lengthAdjust="spacing" textLength="69" x="1565.5" y="522.6826">Help bool</text><line style="stroke:#181818;stroke-width:0.5;" x1="1546.5" x2="1727.5" y1="529.9844" y2="529.9844"/><rect fill="#F24D5C" height="6" style="stroke:#C82930;stroke-width:1.0;" width="6" x="1553.5" y="540.6328"/><text fill="#000000" font-family="sans-serif" font-size="14" lengthAdjust="spacing" textLength="22" x="1565.5" y="546.9795">log</text><text fill="#0000FF" font-family="sans-serif" font-size="14" lengthAdjust="spacing" textLength="31" x="1591.5" y="546.9795">func</text><text fill="#000000" font-family="sans-serif" font-size="14" lengthAdjust="spacing" textLength="100" x="1622.5" y="546.9795">(string, ...any)</text></g><!--class Infra--><g id="elem_Infra"><rect codeLine="63" fill="#F1F1F1" height="210.9688" id="Infra" rx="2.5" ry="2.5" style="stroke:#181818;stroke-width:0.5;" width="197" x="1313.5" y="376"/><ellipse cx="1391.25" cy="392" fill="#7FFFD4" rx="11" ry="11" style="stroke:#181818;stroke-width:1.0;"/><path d="M1395.0313,387.9688 C1395.0313,387.5313 1395.0156,387.3906 1394.9219,387.2344 C1394.7813,387 1394.5,386.8438 1394.2031,386.8438 C1393.8594,386.8438 1393.7188,386.9844 1393.5469,387.4063 C1392.9531,387.0313 1392.2031,386.8438 1391.3281,386.8438 C1389.2188,386.8438 1387.6406,388.1406 1387.6406,389.8594 C1387.6406,390.8281 1388.1719,391.7344 1389.0313,392.2188 C1389.5781,392.5313 1390.125,392.7031 1391.2344,392.8906 C1392.3906,393.0938 1392.6563,393.1563 1393.0156,393.3438 C1393.3906,393.5469 1393.625,393.8906 1393.625,394.25 C1393.625,394.9844 1392.6406,395.5313 1391.3906,395.5313 C1390.2656,395.5313 1389.1875,395.0469 1389.0156,394.4375 C1388.8906,393.9688 1388.8906,393.9688 1388.7656,393.8594 C1388.6094,393.7031 1388.3906,393.6094 1388.1563,393.6094 C1387.875,393.6094 1387.625,393.7344 1387.4531,393.9531 C1387.3438,394.125 1387.2969,394.3125 1387.2969,394.7344 L1387.2969,395.8594 C1387.2969,396.625 1387.5781,396.9844 1388.1719,396.9844 C1388.4375,396.9844 1388.5625,396.9219 1388.8438,396.5781 C1389.6875,397.0156 1390.5781,397.2344 1391.5,397.2344 C1393.8281,397.2344 1395.3906,396.0469 1395.3906,394.2813 C1395.3906,393.3906 1395.0781,392.7031 1394.3906,392.1563 C1393.8594,391.7344 1393.2188,391.4844 1391.7344,391.2188 C1390.4688,390.9844 1390.375,390.9531 1390.0469,390.7813 C1389.6719,390.5938 1389.4063,390.2031 1389.4063,389.8438 C1389.4063,389.1094 1390.2656,388.5469 1391.3281,388.5469 C1392.3906,388.5469 1393.2031,389.0156 1393.3594,389.6875 C1393.4688,390.2344 1393.4688,390.2344 1393.5938,390.375 C1393.7344,390.5 1393.9688,390.6094 1394.2031,390.6094 C1394.4688,390.6094 1394.7188,390.4688 1394.8906,390.25 C1395,390.0781 1395.0313,389.9375 1395.0313,389.4688 L1395.0313,387.9688 Z " fill="#000000"/><text fill="#000000" font-family="sans-serif" font-size="14" lengthAdjust="spacing" textLength="33" x="1411.75" y="396.8467">Infra</text><line style="stroke:#181818;stroke-width:0.5;" x1="1314.5" x2="1509.5" y1="408" y2="408"/><rect fill="none" height="6" style="stroke:#C82930;stroke-width:1.0;" width="6" x="1321.5" y="418.6484"/><text fill="#000000" font-family="sans-serif" font-size="14" lengthAdjust="spacing" textLength="150" x="1333.5" y="424.9951">reader io.ReadCloser</text><rect fill="none" height="6" style="stroke:#C82930;stroke-width:1.0;" width="6" x="1321.5" y="434.9453"/><text fill="#000000" font-family="sans-serif" font-size="14" lengthAdjust="spacing" textLength="108" x="1333.5" y="441.292">aliensCount int</text><rect fill="none" height="6" style="stroke:#C82930;stroke-width:1.0;" width="6" x="1321.5" y="451.2422"/><text fill="#000000" font-family="sans-serif" font-size="14" lengthAdjust="spacing" textLength="150" x="1333.5" y="457.5889">writer io.WriteCloser</text><line style="stroke:#181818;stroke-width:0.5;" x1="1314.5" x2="1509.5" y1="464.8906" y2="464.8906"/><rect fill="#F24D5C" height="6" style="stroke:#C82930;stroke-width:1.0;" width="6" x="1321.5" y="475.5391"/><text fill="#000000" font-family="sans-serif" font-size="14" lengthAdjust="spacing" textLength="22" x="1333.5" y="481.8857">log</text><text fill="#0000FF" font-family="sans-serif" font-size="14" lengthAdjust="spacing" textLength="31" x="1359.5" y="481.8857">func</text><text fill="#000000" font-family="sans-serif" font-size="14" lengthAdjust="spacing" textLength="100" x="1390.5" y="481.8857">(string, ...any)</text><text fill="#000000" font-family="sans-serif" font-size="14" lengthAdjust="spacing" textLength="4" x="1333.5" y="498.1826">&#160;</text><ellipse cx="1324.5" cy="511.1328" fill="#84BE84" rx="3" ry="3" style="stroke:#038048;stroke-width:1.0;"/><text fill="#000000" font-family="sans-serif" font-size="14" lengthAdjust="spacing" textLength="81" x="1333.5" y="514.4795">Shutdown()</text><ellipse cx="1324.5" cy="527.4297" fill="#84BE84" rx="3" ry="3" style="stroke:#038048;stroke-width:1.0;"/><text fill="#000000" font-family="sans-serif" font-size="14" lengthAdjust="spacing" textLength="96" x="1333.5" y="530.7764">In() io.Reader</text><ellipse cx="1324.5" cy="543.7266" fill="#84BE84" rx="3" ry="3" style="stroke:#038048;stroke-width:1.0;"/><text fill="#000000" font-family="sans-serif" font-size="14" lengthAdjust="spacing" textLength="104" x="1333.5" y="547.0732">Out() io.Writer</text><ellipse cx="1324.5" cy="560.0234" fill="#84BE84" rx="3" ry="3" style="stroke:#038048;stroke-width:1.0;"/><text fill="#000000" font-family="sans-serif" font-size="14" lengthAdjust="spacing" textLength="120" x="1333.5" y="563.3701">AliensCount() int</text><ellipse cx="1324.5" cy="576.3203" fill="#84BE84" rx="3" ry="3" style="stroke:#038048;stroke-width:1.0;"/><text fill="#000000" font-family="sans-serif" font-size="14" lengthAdjust="spacing" textLength="36" x="1333.5" y="579.667">Log()</text><text fill="#0000FF" font-family="sans-serif" font-size="14" lengthAdjust="spacing" textLength="31" x="1373.5" y="579.667">func</text><text fill="#000000" font-family="sans-serif" font-size="14" lengthAdjust="spacing" textLength="100" x="1404.5" y="579.667">(string, ...any)</text></g><!--class IInfra--><g id="elem_IInfra"><rect codeLine="81" fill="#F1F1F1" height="113.1875" id="IInfra" rx="2.5" ry="2.5" style="stroke:#181818;stroke-width:0.5;" width="197" x="1313.5" y="114.5"/><ellipse cx="1389.25" cy="130.5" fill="#B4A7E5" rx="11" ry="11" style="stroke:#181818;stroke-width:1.0;"/><path d="M1390.2031,127.2813 L1391.9219,127.2813 C1392.3125,127.2813 1392.5,127.25 1392.625,127.1719 C1392.8906,127.0156 1393.0313,126.7344 1393.0313,126.4375 C1393.0313,126.1719 1392.9219,125.9063 1392.6875,125.7344 C1392.5156,125.625 1392.375,125.5938 1391.9219,125.5938 L1386.7813,125.5938 C1386.3438,125.5938 1386.2188,125.6094 1386.0625,125.7031 C1385.8125,125.8594 1385.6563,126.1563 1385.6563,126.4375 C1385.6563,126.7188 1385.7969,126.9688 1386.0156,127.1406 C1386.1719,127.25 1386.3594,127.2813 1386.7813,127.2813 L1388.5,127.2813 L1388.5,133.7969 L1386.7813,133.7969 C1386.3438,133.7969 1386.2188,133.8125 1386.0625,133.9219 C1385.8125,134.0781 1385.6563,134.3594 1385.6563,134.6563 C1385.6563,134.9063 1385.7969,135.1719 1386.0156,135.3281 C1386.1719,135.4531 1386.375,135.5 1386.7813,135.5 L1391.9219,135.5 C1392.6719,135.5 1393.0313,135.2188 1393.0313,134.6563 C1393.0313,134.375 1392.9219,134.125 1392.6875,133.9531 C1392.5156,133.8281 1392.375,133.7969 1391.9219,133.7969 L1390.2031,133.7969 L1390.2031,127.2813 Z " fill="#000000"/><text fill="#000000" font-family="sans-serif" font-size="14" font-style="italic" lengthAdjust="spacing" textLength="37" x="1409.75" y="135.3467">IInfra</text><line style="stroke:#181818;stroke-width:0.5;" x1="1314.5" x2="1509.5" y1="146.5" y2="146.5"/><line style="stroke:#181818;stroke-width:0.5;" x1="1314.5" x2="1509.5" y1="154.5" y2="154.5"/><ellipse cx="1324.5" cy="168.1484" fill="#84BE84" rx="3" ry="3" style="stroke:#038048;stroke-width:1.0;"/><text fill="#000000" font-family="sans-serif" font-size="14" lengthAdjust="spacing" textLength="96" x="1333.5" y="171.4951">In() io.Reader</text><ellipse cx="1324.5" cy="184.4453" fill="#84BE84" rx="3" ry="3" style="stroke:#038048;stroke-width:1.0;"/><text fill="#000000" font-family="sans-serif" font-size="14" lengthAdjust="spacing" textLength="104" x="1333.5" y="187.792">Out() io.Writer</text><ellipse cx="1324.5" cy="200.7422" fill="#84BE84" rx="3" ry="3" style="stroke:#038048;stroke-width:1.0;"/><text fill="#000000" font-family="sans-serif" font-size="14" lengthAdjust="spacing" textLength="120" x="1333.5" y="204.0889">AliensCount() int</text><ellipse cx="1324.5" cy="217.0391" fill="#84BE84" rx="3" ry="3" style="stroke:#038048;stroke-width:1.0;"/><text fill="#000000" font-family="sans-serif" font-size="14" lengthAdjust="spacing" textLength="36" x="1333.5" y="220.3857">Log()</text><text fill="#0000FF" font-family="sans-serif" font-size="14" lengthAdjust="spacing" textLength="31" x="1373.5" y="220.3857">func</text><text fill="#000000" font-family="sans-serif" font-size="14" lengthAdjust="spacing" textLength="100" x="1404.5" y="220.3857">(string, ...any)</text></g><!--class Scenario--><g id="elem_Scenario"><rect codeLine="88" fill="#F1F1F1" height="259.8594" id="Scenario" rx="2.5" ry="2.5" style="stroke:#181818;stroke-width:0.5;" width="342" x="936" y="41"/><ellipse cx="1071.75" cy="57" fill="#7FFFD4" rx="11" ry="11" style="stroke:#181818;stroke-width:1.0;"/><path d="M1075.5313,52.9688 C1075.5313,52.5313 1075.5156,52.3906 1075.4219,52.2344 C1075.2813,52 1075,51.8438 1074.7031,51.8438 C1074.3594,51.8438 1074.2188,51.9844 1074.0469,52.4063 C1073.4531,52.0313 1072.7031,51.8438 1071.8281,51.8438 C1069.7188,51.8438 1068.1406,53.1406 1068.1406,54.8594 C1068.1406,55.8281 1068.6719,56.7344 1069.5313,57.2188 C1070.0781,57.5313 1070.625,57.7031 1071.7344,57.8906 C1072.8906,58.0938 1073.1563,58.1563 1073.5156,58.3438 C1073.8906,58.5469 1074.125,58.8906 1074.125,59.25 C1074.125,59.9844 1073.1406,60.5313 1071.8906,60.5313 C1070.7656,60.5313 1069.6875,60.0469 1069.5156,59.4375 C1069.3906,58.9688 1069.3906,58.9688 1069.2656,58.8594 C1069.1094,58.7031 1068.8906,58.6094 1068.6563,58.6094 C1068.375,58.6094 1068.125,58.7344 1067.9531,58.9531 C1067.8438,59.125 1067.7969,59.3125 1067.7969,59.7344 L1067.7969,60.8594 C1067.7969,61.625 1068.0781,61.9844 1068.6719,61.9844 C1068.9375,61.9844 1069.0625,61.9219 1069.3438,61.5781 C1070.1875,62.0156 1071.0781,62.2344 1072,62.2344 C1074.3281,62.2344 1075.8906,61.0469 1075.8906,59.2813 C1075.8906,58.3906 1075.5781,57.7031 1074.8906,57.1563 C1074.3594,56.7344 1073.7188,56.4844 1072.2344,56.2188 C1070.9688,55.9844 1070.875,55.9531 1070.5469,55.7813 C1070.1719,55.5938 1069.9063,55.2031 1069.9063,54.8438 C1069.9063,54.1094 1070.7656,53.5469 1071.8281,53.5469 C1072.8906,53.5469 1073.7031,54.0156 1073.8594,54.6875 C1073.9688,55.2344 1073.9688,55.2344 1074.0938,55.375 C1074.2344,55.5 1074.4688,55.6094 1074.7031,55.6094 C1074.9688,55.6094 1075.2188,55.4688 1075.3906,55.25 C1075.5,55.0781 1075.5313,54.9375 1075.5313,54.4688 L1075.5313,52.9688 Z " fill="#000000"/><text fill="#000000" font-family="sans-serif" font-size="14" lengthAdjust="spacing" textLength="62" x="1092.25" y="61.8467">Scenario</text><line style="stroke:#181818;stroke-width:0.5;" x1="937" x2="1277" y1="73" y2="73"/><rect fill="none" height="6" style="stroke:#C82930;stroke-width:1.0;" width="6" x="944" y="83.6484"/><text fill="#000000" font-family="sans-serif" font-size="14" lengthAdjust="spacing" textLength="92" x="956" y="89.9951">out io.Writer</text><rect fill="none" height="6" style="stroke:#C82930;stroke-width:1.0;" width="6" x="944" y="99.9453"/><text fill="#000000" font-family="sans-serif" font-size="14" lengthAdjust="spacing" textLength="161" x="956" y="106.292">worldMap domain.Map</text><rect fill="none" height="6" style="stroke:#C82930;stroke-width:1.0;" width="6" x="944" y="116.2422"/><text fill="#000000" font-family="sans-serif" font-size="14" lengthAdjust="spacing" textLength="108" x="956" y="122.5889">aliensCount int</text><rect fill="none" height="6" style="stroke:#C82930;stroke-width:1.0;" width="6" x="944" y="132.5391"/><text fill="#000000" font-family="sans-serif" font-size="14" lengthAdjust="spacing" textLength="41" x="956" y="138.8857">aliens</text><text fill="#0000FF" font-family="sans-serif" font-size="14" lengthAdjust="spacing" textLength="32" x="1001" y="138.8857">map</text><text fill="#000000" font-family="sans-serif" font-size="14" lengthAdjust="spacing" textLength="198" x="1033" y="138.8857">[domain.Alien]*domain.City</text><rect fill="none" height="6" style="stroke:#C82930;stroke-width:1.0;" width="6" x="944" y="148.8359"/><text fill="#000000" font-family="sans-serif" font-size="14" lengthAdjust="spacing" textLength="111" x="956" y="155.1826">movesLeft []int</text><line style="stroke:#181818;stroke-width:0.5;" x1="937" x2="1277" y1="162.4844" y2="162.4844"/><rect fill="#F24D5C" height="6" style="stroke:#C82930;stroke-width:1.0;" width="6" x="944" y="173.1328"/><text fill="#000000" font-family="sans-serif" font-size="14" lengthAdjust="spacing" textLength="22" x="956" y="179.4795">log</text><text fill="#0000FF" font-family="sans-serif" font-size="14" lengthAdjust="spacing" textLength="31" x="982" y="179.4795">func</text><text fill="#000000" font-family="sans-serif" font-size="14" lengthAdjust="spacing" textLength="100" x="1013" y="179.4795">(string, ...any)</text><text fill="#000000" font-family="sans-serif" font-size="14" lengthAdjust="spacing" textLength="4" x="956" y="195.7764">&#160;</text><rect fill="#F24D5C" height="6" style="stroke:#C82930;stroke-width:1.0;" width="6" x="944" y="205.7266"/><text fill="#000000" font-family="sans-serif" font-size="14" lengthAdjust="spacing" textLength="87" x="956" y="212.0732">seedAliens()</text><rect fill="#F24D5C" height="6" style="stroke:#C82930;stroke-width:1.0;" width="6" x="944" y="222.0234"/><text fill="#000000" font-family="sans-serif" font-size="14" lengthAdjust="spacing" textLength="204" x="956" y="228.3701">aliensQueue() []domain.Alien</text><rect fill="#F24D5C" height="6" style="stroke:#C82930;stroke-width:1.0;" width="6" x="944" y="238.3203"/><text fill="#000000" font-family="sans-serif" font-size="14" lengthAdjust="spacing" textLength="316" x="956" y="244.667">moveAlien(alien domain.Alien) *domain.City</text><rect fill="#F24D5C" height="6" style="stroke:#C82930;stroke-width:1.0;" width="6" x="944" y="254.6172"/><text fill="#000000" font-family="sans-serif" font-size="14" lengthAdjust="spacing" textLength="219" x="956" y="260.9639">destroyCity(city *domain.City)</text><text fill="#000000" font-family="sans-serif" font-size="14" lengthAdjust="spacing" textLength="4" x="956" y="277.2607">&#160;</text><ellipse cx="947" cy="290.2109" fill="#84BE84" rx="3" ry="3" style="stroke:#038048;stroke-width:1.0;"/><text fill="#000000" font-family="sans-serif" font-size="14" lengthAdjust="spacing" textLength="77" x="956" y="293.5576">Run() error</text></g><!--class int--><g id="elem_int"><rect fill="#F1F1F1" height="48" id="int" rx="2.5" ry="2.5" style="stroke:#181818;stroke-width:0.5;" width="52" x="663" y="147"/><ellipse cx="678" cy="163" fill="#ADD1B2" rx="11" ry="11" style="stroke:#181818;stroke-width:1.0;"/><path d="M680.3438,158.6719 C679.4063,158.2344 678.8125,158.0938 677.9375,158.0938 C675.3125,158.0938 673.3125,160.1719 673.3125,162.8906 L673.3125,164.0156 C673.3125,166.5938 675.4219,168.4844 678.3125,168.4844 C679.5313,168.4844 680.6875,168.1875 681.4375,167.6406 C682.0156,167.2344 682.3438,166.7813 682.3438,166.3906 C682.3438,165.9375 681.9531,165.5469 681.4844,165.5469 C681.2656,165.5469 681.0625,165.625 680.875,165.8125 C680.4219,166.2969 680.4219,166.2969 680.2344,166.3906 C679.8125,166.6563 679.125,166.7813 678.3594,166.7813 C676.3125,166.7813 675.0156,165.6875 675.0156,163.9844 L675.0156,162.8906 C675.0156,161.1094 676.2656,159.7969 678,159.7969 C678.5781,159.7969 679.1875,159.9531 679.6563,160.2031 C680.1406,160.4844 680.3125,160.7031 680.4063,161.1094 C680.4688,161.5156 680.5,161.6406 680.6406,161.7656 C680.7813,161.9063 681.0156,162.0156 681.2344,162.0156 C681.5,162.0156 681.7656,161.875 681.9375,161.6563 C682.0469,161.5 682.0781,161.3125 682.0781,160.8906 L682.0781,159.4688 C682.0781,159.0313 682.0625,158.9063 681.9688,158.75 C681.8125,158.4844 681.5313,158.3438 681.2344,158.3438 C680.9375,158.3438 680.7344,158.4375 680.5156,158.75 L680.3438,158.6719 Z " fill="#000000"/><text fill="#000000" font-family="sans-serif" font-size="14" lengthAdjust="spacing" textLength="20" x="692" y="167.8467">int</text><line style="stroke:#181818;stroke-width:0.5;" x1="664" x2="714" y1="179" y2="179"/><line style="stroke:#181818;stroke-width:0.5;" x1="664" x2="714" y1="187" y2="187"/></g><!--class uint--><g id="elem_uint"><rect fill="#F1F1F1" height="48" id="uint" rx="2.5" ry="2.5" style="stroke:#181818;stroke-width:0.5;" width="60" x="568" y="147"/><ellipse cx="583" cy="163" fill="#ADD1B2" rx="11" ry="11" style="stroke:#181818;stroke-width:1.0;"/><path d="M585.3438,158.6719 C584.4063,158.2344 583.8125,158.0938 582.9375,158.0938 C580.3125,158.0938 578.3125,160.1719 578.3125,162.8906 L578.3125,164.0156 C578.3125,166.5938 580.4219,168.4844 583.3125,168.4844 C584.5313,168.4844 585.6875,168.1875 586.4375,167.6406 C587.0156,167.2344 587.3438,166.7813 587.3438,166.3906 C587.3438,165.9375 586.9531,165.5469 586.4844,165.5469 C586.2656,165.5469 586.0625,165.625 585.875,165.8125 C585.4219,166.2969 585.4219,166.2969 585.2344,166.3906 C584.8125,166.6563 584.125,166.7813 583.3594,166.7813 C581.3125,166.7813 580.0156,165.6875 580.0156,163.9844 L580.0156,162.8906 C580.0156,161.1094 581.2656,159.7969 583,159.7969 C583.5781,159.7969 584.1875,159.9531 584.6563,160.2031 C585.1406,160.4844 585.3125,160.7031 585.4063,161.1094 C585.4688,161.5156 585.5,161.6406 585.6406,161.7656 C585.7813,161.9063 586.0156,162.0156 586.2344,162.0156 C586.5,162.0156 586.7656,161.875 586.9375,161.6563 C587.0469,161.5 587.0781,161.3125 587.0781,160.8906 L587.0781,159.4688 C587.0781,159.0313 587.0625,158.9063 586.9688,158.75 C586.8125,158.4844 586.5313,158.3438 586.2344,158.3438 C585.9375,158.3438 585.7344,158.4375 585.5156,158.75 L585.3438,158.6719 Z " fill="#000000"/><text fill="#000000" font-family="sans-serif" font-size="14" lengthAdjust="spacing" textLength="28" x="597" y="167.8467">uint</text><line style="stroke:#181818;stroke-width:0.5;" x1="569" x2="627" y1="179" y2="179"/><line style="stroke:#181818;stroke-width:0.5;" x1="569" x2="627" y1="187" y2="187"/></g><!--reverse link IInfra to Infra--><g id="link_IInfra_Infra"><path codeLine="78" d="M1412,247.651 C1412,286.245 1412,333.796 1412,375.845 " fill="none" id="IInfra-backto-Infra" style="stroke:#181818;stroke-width:1.0;"/><polygon fill="none" points="1405,247.51,1412,227.51,1419,247.51,1405,247.51" style="stroke:#181818;stroke-width:1.0;"/></g><!--reverse link int to Alien--><g id="link_int_Alien"><path codeLine="107" d="M692.201,200.212 C698.753,257.969 713.652,389.291 720.472,449.407 " fill="none" id="int-backto-Alien" style="stroke:#181818;stroke-width:1.0;stroke-dasharray:7.0,7.0;"/><rect fill="#FFFFFF" height="10" style="stroke:#181818;stroke-width:1.5;" width="10" x="686.631" y="190.188"/></g><!--reverse link uint to Direction--><g id="link_uint_Direction"><path codeLine="108" d="M594.799,200.212 C588.247,257.969 573.348,389.291 566.528,449.407 " fill="none" id="uint-backto-Direction" style="stroke:#181818;stroke-width:1.0;stroke-dasharray:7.0,7.0;"/><rect fill="#FFFFFF" height="10" style="stroke:#181818;stroke-width:1.5;" width="10" x="590.369" y="190.188"/></g><!--reverse link <font color=blue>map</font>[road]{packageName}void to RoadSet--><g id="link_&lt;font color=blue&gt;map&lt;/font&gt;[road]{packageName}void_RoadSet"><path codeLine="109" d="M364.724,509.262 C407.768,550.813 490.916,631.076 540.94,679.364 " fill="none" id="&lt;font color=blue&gt;map&lt;/font&gt;[road]{packageName}void-backto-RoadSet" style="stroke:#181818;stroke-width:1.0;stroke-dasharray:7.0,7.0;"/><rect fill="#FFFFFF" height="10" style="stroke:#181818;stroke-width:1.5;" width="10" x="355.938" y="500.607"/></g><!--reverse link <font color=blue>map</font>[string]*City to Map--><g id="link_&lt;font color=blue&gt;map&lt;/font&gt;[string]*City_Map"><path codeLine="110" d="M115.752,509.939 C137.274,543.208 174.379,600.562 204.286,646.791 " fill="none" id="&lt;font color=blue&gt;map&lt;/font&gt;[string]*City-backto-Map" style="stroke:#181818;stroke-width:1.0;stroke-dasharray:7.0,7.0;"/><rect fill="#FFFFFF" height="10" style="stroke:#181818;stroke-width:1.5;" width="10" x="107.949" y="500.607"/></g><!--SRC=[pLPBRzf04BxxLuoSYqc3crik52cYYegKlaAb7YA4DlQOh69swJuIHId_lVimzXfJZ98UoW7PE-_PRxun8okKQv8Xv7n5A8EN2CmlAucKS5bIP30QGJ8xk_oboOe8od00ut6bPd_lOARCyJ8PW7GFaHDj0ZyJgfxxt0o1iYaJdEGIRip_35KKnFXYyjpwRqw_QcLrOLHmfY3Z9HSVxagDunLPZzxRm_7jHoemKvIp-QdD8x1svKcudRk7w415ZQJs9etqTbw_TekkHV-WWP_9khz_ZwIaEL5uJTb3KWY-gjoTWUBrOrvdLUSt01I2Yx3-QogLQHP5N-Lkuso4IloAE44pqQZpP-izoIn6NA0112fJHfMJimO00w_NRLE5c_vMaJnF15Ym1S6687357x6HT0Bu6KcRkVXn1YTNLnSNv-SkHXLaZqaR3KURRI_-Q8Em1Vr6mWrFNxVS7RSnCDntmTr-FN9wqFycsaHHn6eEegmGn5oopfGMsEAY2MS5NVOdQoR_YfRuZQZxtUarz-ucViArOGlAL23XMltThEJBBiKKccKLnoHRrATfIjZp5ZaUmP-mNCCTvsMtFLDRRdz90acE0YXFRypJfEGInL55FGcglE5F-zInV5DTitkjSlx4afrvDUzLfYZQLEqbBXNHeM6NlzK8AZ1CmoqjlY97XwnOIyo8H9bENQjZ6FqU3Y5kmopriX27Mxlg6anEA0ehy7wWnTx_JyaDicOPCWCctWyk0_mzAHhiS57cbduQ9ZeASrvoS2E7B3e_hTvswCKIiRp6Gfdrqmxm1j0EGIBcllb9Y_bzrjyrQdGRBqnn9ojtbZY3rZumMsb_ANbdomLwxPcwqHPBmJhs11al5dUQbegonI8rtOZX94qX3gF7RINTqQfPscXMHuVko6w6-OiPXWUoHFlnjR5StdPPxPhZ7FfRyPyIRJS6MV4V]--></g></svg>